<svg width="207" height="325" viewBox="0 0 207 325" fill="none" xmlns="http://www.w3.org/2000/svg">
<g clip-path="url(#clip0_40_957)">
<path d="M165.435 127.686C164.173 127.524 162.908 127.42 161.668 127.384C153.134 127.121 145.047 123.469 139.514 116.971L138.861 116.207C131.904 108.048 129.854 96.7821 133.565 86.7294C135.695 80.9581 137 74.7688 137.328 68.2979C139.001 34.7627 113.201 5.68575 79.6536 3.31017C43.9103 0.781519 13.3371 28.8483 13.094 64.8611C12.8772 97.0498 37.7628 124.291 69.8747 127.053C75.7583 127.562 81.5026 127.237 87.0061 126.179C97.6139 124.147 108.514 127.772 115.516 135.981L117.612 138.436C122.528 144.2 125.048 151.608 124.683 159.163C124.579 161.157 124.556 163.251 124.563 165.337C124.607 173.529 121.271 181.38 115.336 187.03L112.732 189.509C104.913 196.944 93.6953 199.415 83.3566 196.29C77.9933 194.664 72.3044 193.743 66.4093 193.637C34.1642 193.059 6.57758 217.572 3.45209 249.609C-0.0457931 285.461 27.4402 316.548 63.2526 317.754C96.8647 318.884 125.542 292.65 127.379 259.114C127.736 252.644 127.082 246.353 125.555 240.391C122.911 230.006 126.122 219.014 133.891 211.625L134.529 211.014C140.616 205.228 148.864 202.121 157.239 202.847C157.68 202.889 158.121 202.912 158.563 202.935C180.354 204.072 198.795 186.58 198.393 164.413C198.054 145.815 183.908 130.063 165.445 127.687L165.435 127.686Z" fill="#E9E9E9"/>
</g>
<defs>
<clipPath id="clip0_40_957">
<rect width="190.399" height="314.891" fill="white" transform="translate(16.4116) rotate(2.98753)"/>
</clipPath>
</defs>
</svg>
