<svg width="352.8" height="48.961" viewBox="0 0 352.8 48.961" xmlns="http://www.w3.org/2000/svg"><g id="svgGroup" stroke-linecap="round" fill-rule="evenodd" font-size="9pt" stroke="#000000" stroke-width="0mm" fill="#000000" style="stroke:#000000;stroke-width:0mm;fill:#000000"><path d="M 66.312 48.097 L 60.84 48.097 L 60.84 0.865 L 68.4 0.865 L 77.328 26.137 Q 78.192 28.513 78.948 30.889 Q 79.704 33.265 80.496 35.929 L 80.784 35.929 Q 81.576 33.265 82.296 30.889 Q 83.016 28.513 83.808 26.137 L 92.736 0.865 L 100.224 0.865 L 100.224 48.097 L 94.608 48.097 L 94.608 22.105 A 72.067 72.067 0 0 1 94.643 19.909 Q 94.679 18.731 94.752 17.425 Q 94.896 14.833 95.076 12.277 Q 95.256 9.721 95.472 7.633 L 95.184 7.633 L 91.512 19.009 L 82.656 43.417 L 78.264 43.417 L 69.408 19.009 L 65.736 7.633 L 65.448 7.633 Q 65.664 9.721 65.844 12.277 Q 66.024 14.833 66.168 17.425 Q 66.31 19.975 66.312 22.038 A 60.672 60.672 0 0 1 66.312 22.105 L 66.312 48.097 Z M 112.968 28.873 L 112.968 0.865 L 118.944 0.865 L 118.944 29.017 Q 118.944 34.561 120.42 37.765 Q 121.896 40.969 124.38 42.301 A 11.307 11.307 0 0 0 128.914 43.593 A 13.704 13.704 0 0 0 129.96 43.633 A 12.48 12.48 0 0 0 133.962 43.003 A 11.478 11.478 0 0 0 135.612 42.301 A 8.325 8.325 0 0 0 138.384 39.924 A 11.906 11.906 0 0 0 139.68 37.765 A 13.534 13.534 0 0 0 140.594 35.064 Q 141.192 32.503 141.192 29.017 L 141.192 0.865 L 146.88 0.865 L 146.88 28.873 Q 146.88 33.374 146.049 36.784 A 21.241 21.241 0 0 1 145.62 38.305 A 19.025 19.025 0 0 1 144.331 41.385 Q 143.406 43.122 142.178 44.407 A 11.842 11.842 0 0 1 142.056 44.533 Q 139.752 46.873 136.656 47.917 A 20.153 20.153 0 0 1 131.511 48.911 A 23.746 23.746 0 0 1 129.96 48.961 A 22.483 22.483 0 0 1 125.815 48.593 A 18.621 18.621 0 0 1 123.228 47.917 Q 120.168 46.873 117.864 44.533 A 13.587 13.587 0 0 1 115.7 41.609 Q 114.927 40.226 114.346 38.545 A 22.931 22.931 0 0 1 114.264 38.305 A 23.231 23.231 0 0 1 113.378 34.586 Q 112.968 31.991 112.968 28.873 Z M 0 41.905 L 3.384 38.017 Q 5.904 40.681 9.396 42.193 Q 12.888 43.705 16.632 43.705 Q 19.936 43.705 22.2 42.646 A 8.068 8.068 0 0 0 23.904 41.581 A 6.784 6.784 0 0 0 26.473 36.637 A 8.745 8.745 0 0 0 26.496 36.001 A 9.303 9.303 0 0 0 26.373 34.437 Q 26.137 33.058 25.452 32.113 A 8.236 8.236 0 0 0 23.676 30.337 A 10.297 10.297 0 0 0 22.644 29.665 Q 20.88 28.657 18.648 27.649 L 11.88 24.697 Q 9.576 23.689 7.38 22.177 Q 5.184 20.665 3.744 18.325 A 9.341 9.341 0 0 1 2.585 15.362 Q 2.324 14.146 2.305 12.742 A 16.34 16.34 0 0 1 2.304 12.529 A 11.575 11.575 0 0 1 3.247 7.84 A 11.199 11.199 0 0 1 4.212 6.085 Q 6.12 3.241 9.468 1.621 A 16.086 16.086 0 0 1 14.281 0.192 A 20.626 20.626 0 0 1 17.136 0.001 A 20.528 20.528 0 0 1 22.376 0.651 A 18.03 18.03 0 0 1 25.056 1.585 A 20.397 20.397 0 0 1 28.925 3.796 A 17.294 17.294 0 0 1 31.104 5.689 L 27.864 9.577 Q 25.632 7.633 22.968 6.445 A 13.857 13.857 0 0 0 18.114 5.286 A 16.298 16.298 0 0 0 17.136 5.257 A 13.652 13.652 0 0 0 14.49 5.498 Q 12.309 5.929 10.764 7.129 A 5.958 5.958 0 0 0 8.383 11.467 A 7.782 7.782 0 0 0 8.352 12.169 A 7.112 7.112 0 0 0 8.528 13.791 A 5.087 5.087 0 0 0 9.504 15.841 A 8.597 8.597 0 0 0 11.617 17.717 A 10.464 10.464 0 0 0 12.492 18.217 Q 14.328 19.153 16.2 20.017 L 22.896 22.897 A 28.845 28.845 0 0 1 26.167 24.567 A 24.003 24.003 0 0 1 27.9 25.705 Q 30.096 27.289 31.356 29.665 A 10.282 10.282 0 0 1 32.32 32.402 Q 32.57 33.601 32.609 34.98 A 18.3 18.3 0 0 1 32.616 35.497 Q 32.616 39.241 30.708 42.301 A 12.704 12.704 0 0 1 26.723 46.28 A 16.046 16.046 0 0 1 25.164 47.161 A 16.812 16.812 0 0 1 20.652 48.616 A 23.148 23.148 0 0 1 16.56 48.961 A 23.127 23.127 0 0 1 10.457 48.178 A 20.348 20.348 0 0 1 7.344 47.053 Q 3.168 45.145 0 41.905 Z M 194.4 48.097 L 188.352 48.097 L 204.336 0.865 L 211.104 0.865 L 227.088 48.097 L 220.752 48.097 L 212.472 21.673 Q 211.176 17.713 210.024 13.789 Q 208.872 9.865 207.72 5.761 L 207.432 5.761 Q 206.352 9.865 205.2 13.789 Q 204.048 17.713 202.752 21.673 L 194.4 48.097 Z M 249.552 48.097 L 243.504 48.097 L 243.504 5.977 L 229.248 5.977 L 229.248 0.865 L 263.808 0.865 L 263.808 5.977 L 249.552 5.977 L 249.552 48.097 Z M 186.264 48.097 L 159.624 48.097 L 159.624 0.865 L 165.6 0.865 L 165.6 42.985 L 186.264 42.985 L 186.264 48.097 Z M 326.088 48.097 L 320.112 48.097 L 320.112 0.865 L 334.872 0.865 A 31.636 31.636 0 0 1 339.157 1.141 A 23.313 23.313 0 0 1 343.44 2.125 A 12.607 12.607 0 0 1 346.961 3.931 A 10.993 10.993 0 0 1 349.308 6.301 A 10.323 10.323 0 0 1 350.893 9.681 Q 351.432 11.645 351.432 14.113 Q 351.432 18.411 349.694 21.354 A 10.575 10.575 0 0 1 349.308 21.961 A 12.71 12.71 0 0 1 344.135 26.297 A 15.529 15.529 0 0 1 343.44 26.605 A 20.022 20.022 0 0 1 338.613 27.897 A 26.352 26.352 0 0 1 334.872 28.153 L 326.088 28.153 L 326.088 48.097 Z M 283.187 47.894 A 19.607 19.607 0 0 0 289.728 48.961 A 22.46 22.46 0 0 0 291.425 48.897 A 18.066 18.066 0 0 0 300.24 45.937 A 18.814 18.814 0 0 0 304.122 42.482 A 22.465 22.465 0 0 0 307.368 37.369 A 23.469 23.469 0 0 0 307.458 37.173 Q 309.96 31.692 309.96 24.265 A 43.494 43.494 0 0 0 309.957 23.769 Q 309.875 16.525 307.368 11.269 A 23.711 23.711 0 0 0 306.141 9.011 A 18.953 18.953 0 0 0 300.24 2.917 A 17.768 17.768 0 0 0 295.671 0.824 A 20.763 20.763 0 0 0 289.728 0.001 A 22.942 22.942 0 0 0 288.262 0.047 A 18.686 18.686 0 0 0 279.252 2.917 A 18.127 18.127 0 0 0 275.466 6.14 A 21.134 21.134 0 0 0 272.124 11.269 Q 270.666 14.369 270.04 18.16 A 37.466 37.466 0 0 0 269.568 24.265 A 44.639 44.639 0 0 0 269.568 24.372 Q 269.576 27.737 270.093 30.702 A 26.873 26.873 0 0 0 272.124 37.369 Q 274.68 42.913 279.252 45.937 A 17.796 17.796 0 0 0 283.187 47.894 Z M 289.728 43.633 A 12.755 12.755 0 0 0 293.984 42.942 A 11.386 11.386 0 0 0 297.108 41.257 A 13.86 13.86 0 0 0 300.545 37.4 A 18.673 18.673 0 0 0 301.968 34.525 A 23.47 23.47 0 0 0 303.291 29.621 Q 303.658 27.358 303.692 24.798 A 39.631 39.631 0 0 0 303.696 24.265 A 33.11 33.11 0 0 0 303.377 19.545 Q 303.013 17.02 302.234 14.876 A 19.567 19.567 0 0 0 301.968 14.185 A 17.484 17.484 0 0 0 300.044 10.628 A 13.538 13.538 0 0 0 297.108 7.597 A 11.772 11.772 0 0 0 290.644 5.285 A 14.792 14.792 0 0 0 289.728 5.257 Q 285.552 5.257 282.384 7.597 Q 279.216 9.937 277.488 14.185 Q 275.76 18.433 275.76 24.265 A 34.044 34.044 0 0 0 276.091 29.134 Q 276.516 32.074 277.488 34.525 A 17.791 17.791 0 0 0 279.35 38.066 A 13.549 13.549 0 0 0 282.384 41.257 A 11.881 11.881 0 0 0 289.598 43.632 A 14.599 14.599 0 0 0 289.728 43.633 Z M 47.88 48.097 L 41.904 48.097 L 41.904 0.865 L 47.88 0.865 L 47.88 48.097 Z M 326.088 5.689 L 326.088 23.257 L 334.008 23.257 A 21.742 21.742 0 0 0 337.22 23.035 Q 338.847 22.791 340.168 22.28 A 9.348 9.348 0 0 0 342.504 20.989 A 7.278 7.278 0 0 0 345.182 16.703 A 11.511 11.511 0 0 0 345.456 14.113 Q 345.456 11.057 344.158 9.189 A 5.872 5.872 0 0 0 342.504 7.597 A 10.227 10.227 0 0 0 339.864 6.415 Q 338.571 6.029 336.999 5.848 A 26.215 26.215 0 0 0 334.008 5.689 L 326.088 5.689 Z M 352.8 48.097 L 346.032 48.097 L 333.72 26.497 L 338.4 23.329 L 352.8 48.097 Z M 218.52 33.697 L 196.704 33.697 L 196.704 28.945 L 218.52 28.945 L 218.52 33.697 Z" vector-effect="non-scaling-stroke"/></g></svg>