<svg xmlns="http://www.w3.org/2000/svg" viewBox="0 0 200 60">
  <path d="M65.3,22.5h8.2c6.2,0,10.1,3.7,10.1,9.5c0,5.8-3.9,9.5-10.1,9.5h-8.2V22.5z M73.3,37.8c3.8,0,6.2-2.3,6.2-5.8 c0-3.5-2.4-5.8-6.2-5.8h-4v11.6H73.3z" fill="#2B36A1"/>
  <path d="M86.3,31.8c0-5.7,4.3-9.8,10.2-9.8c5.9,0,10.2,4.1,10.2,9.8s-4.3,9.8-10.2,9.8C90.6,41.6,86.3,37.5,86.3,31.8z M102.5,31.8c0-3.6-2.6-6.1-6-6.1c-3.4,0-6,2.6-6,6.1c0,3.6,2.6,6.1,6,6.1C99.9,37.9,102.5,35.4,102.5,31.8z" fill="#2B36A1"/>
  <path d="M110.4,36.3c0-3.1,2.4-5,6.3-5.3l4.6-0.3v-0.3c0-1.8-1.2-2.8-3.3-2.8c-1.9,0-3.2,0.9-3.5,2.4h-3.9 c0.3-3.6,3.3-6,7.6-6c4.6,0,7.3,2.3,7.3,6.1v10.5h-3.9v-2.5c-1.1,1.7-3.1,2.7-5.7,2.7C112.8,41.6,110.4,39.6,110.4,36.3z M121.3,34.6v-1.2l-4.1,0.3c-2.1,0.1-3.1,1-3.1,2.4c0,1.4,1.2,2.3,3,2.3C119.4,38.4,121.3,36.7,121.3,34.6z" fill="#2B36A1"/>
  <path d="M127.8,41.4V22.1h4v7.9c1.1-1.7,3.1-2.7,5.7-2.7c4.4,0,7.3,3,7.3,7.5v6.7h-4v-6.3c0-2.6-1.6-4.2-3.9-4.2 c-2.4,0-4.1,1.6-4.1,4.2v6.3H127.8z" fill="#2B36A1"/>
  <path d="M155.6,31.8c0-5.7,4.3-9.8,10.2-9.8c5.9,0,10.2,4.1,10.2,9.8s-4.3,9.8-10.2,9.8C159.9,41.6,155.6,37.5,155.6,31.8z M171.8,31.8c0-3.6-2.6-6.1-6-6.1c-3.4,0-6,2.6-6,6.1c0,3.6,2.6,6.1,6,6.1C169.2,37.9,171.8,35.4,171.8,31.8z" fill="#2B36A1"/>
  <path d="M179.7,41.4V22.5h3.9v18.9H179.7z" fill="#2B36A1"/>
  <path d="M188.6,41.4V22.1h3.9v19.3H188.6z" fill="#2B36A1"/>
  <path d="M196,41.4V22.1h3.9v19.3H196z" fill="#2B36A1"/>
  <circle cx="50" cy="30" r="20" fill="none" stroke="#2B36A1" stroke-width="2"/>
  <path d="M42,25 L58,35" stroke="#2B36A1" stroke-width="2"/>
  <path d="M42,35 L58,25" stroke="#2B36A1" stroke-width="2"/>
</svg>
