<svg width="100%" height="100%" viewBox="0 0 160 5" fill="none" xmlns="http://www.w3.org/2000/svg">
<path d="M1.20306 6.27978V9.89738H0.0231476V0.40625H3.03875C5.21879 0.40625 6.47972 1.50627 6.47972 3.35064C6.47972 5.19501 5.23145 6.27978 3.03875 6.27978H1.20053H1.20306ZM3.04128 5.20516C4.64403 5.20516 5.30235 4.5167 5.30235 3.3481C5.30235 2.17949 4.64403 1.47832 3.04128 1.47832H1.20306V5.20516H3.04128Z" fill="white"/>
<path d="M16.0785 9.89738L14.1035 5.89362H11.8678V9.89738H10.6879V0.40625H13.7035C15.8835 0.40625 17.1444 1.3132 17.1444 3.15756C17.1444 4.4913 16.4861 5.32965 15.2809 5.68785L17.3926 9.89738H16.0759H16.0785ZM13.706 4.82155C15.3087 4.82155 15.9671 4.32617 15.9671 3.15756C15.9671 1.98896 15.3087 1.47832 13.706 1.47832H11.8678V4.82155H13.706Z" fill="white"/>
<path d="M27.28 0.405957V1.47803H22.7553V4.44781H26.8673V5.51989H22.7553V8.81993H27.28V9.89201H21.578V0.400879H27.28V0.405957Z" fill="white"/>
<path d="M36.7927 3.36329C36.4635 1.87713 35.709 1.36904 34.5443 1.36904C33.0909 1.36904 32.2959 2.27598 32.2959 4.62844V5.67256C32.2959 8.02502 33.0909 8.93196 34.5443 8.93196C35.7774 8.93196 36.4762 8.32734 36.7927 6.93771H37.9295C37.6282 9.06915 36.3395 10.004 34.5443 10.004C32.4478 10.004 31.116 8.73888 31.116 5.67002V4.6259C31.116 1.55957 32.4453 0.294434 34.5443 0.294434C36.4078 0.294434 37.6434 1.2852 37.9447 3.36075H36.7927V3.36329Z" fill="white"/>
<path d="M43.4442 9.89738H42.2643V0.40625H43.4442V9.89738Z" fill="white"/>
<path d="M53.438 2.5097C52.9316 1.84918 52.3821 1.36904 51.1896 1.36904C50.0932 1.36904 49.3514 1.86443 49.3514 2.8552C49.3514 3.98316 50.2021 4.36931 51.5871 4.61573C53.4101 4.93329 54.5217 5.59127 54.5217 7.3518C54.5217 8.589 53.6988 10.0066 51.3415 10.0066C49.8071 10.0066 48.6829 9.48324 47.9689 8.45182L48.9412 7.7786C49.559 8.50771 50.1059 8.9345 51.339 8.9345C52.8885 8.9345 53.3392 8.2181 53.3392 7.40769C53.3392 6.51346 52.886 5.90882 51.1035 5.63191C49.321 5.35755 48.1689 4.50395 48.1689 2.85266C48.1689 1.49098 49.0602 0.294434 51.225 0.294434C52.7341 0.294434 53.6785 0.802522 54.3495 1.84919L53.4304 2.5097H53.438Z" fill="white"/>
<path d="M60.2642 9.89738H59.0843V0.40625H60.2642V9.89738Z" fill="white"/>
<path d="M68.2856 10.006C66.1891 10.006 64.8573 8.74085 64.8573 5.67198V4.62786C64.8573 1.56154 66.1866 0.296387 68.2856 0.296387C70.3846 0.296387 71.7139 1.56154 71.7139 4.62786V5.67198C71.7139 8.73831 70.3846 10.006 68.2856 10.006ZM66.0372 5.67198C66.0372 8.02444 66.8322 8.93138 68.2856 8.93138C69.7389 8.93138 70.534 8.02444 70.534 5.67198V4.62786C70.534 2.2754 69.7389 1.36846 68.2856 1.36846C66.8322 1.36846 66.0372 2.2754 66.0372 4.62786V5.67198Z" fill="white"/>
<path d="M82.5837 0.40625V9.89738H81.4316L77.3475 2.71806V9.89738H76.1676V0.40625H77.2918L81.4038 7.65415V0.40625H82.5837Z" fill="white"/>
<path d="M98.4745 2.5097C97.9681 1.84918 97.4186 1.36904 96.2261 1.36904C95.1297 1.36904 94.3878 1.86443 94.3878 2.8552C94.3878 3.98316 95.2386 4.36931 96.6236 4.61573C98.4466 4.93329 99.5582 5.59127 99.5582 7.3518C99.5582 8.589 98.7353 10.0066 96.378 10.0066C94.8436 10.0066 93.7194 9.48324 93.0054 8.45182L93.9777 7.7786C94.5955 8.50771 95.1424 8.9345 96.3754 8.9345C97.925 8.9345 98.3757 8.2181 98.3757 7.40769C98.3757 6.51346 97.9225 5.90882 96.14 5.63191C94.3575 5.35755 93.2054 4.50395 93.2054 2.85266C93.2054 1.49098 94.0967 0.294434 96.2615 0.294434C97.7706 0.294434 98.715 0.802522 99.386 1.84919L98.4669 2.5097H98.4745Z" fill="white"/>
<path d="M109.182 3.36329C108.853 1.87713 108.099 1.36904 106.934 1.36904C105.48 1.36904 104.685 2.27598 104.685 4.62844V5.67256C104.685 8.02502 105.48 8.93196 106.934 8.93196C108.167 8.93196 108.866 8.32734 109.182 6.93771H110.319C110.018 9.06915 108.729 10.004 106.934 10.004C104.837 10.004 103.506 8.73888 103.506 5.67002V4.6259C103.506 1.55957 104.835 0.294434 106.934 0.294434C108.797 0.294434 110.033 1.2852 110.334 3.36075H109.182V3.36329Z" fill="white"/>
<path d="M115.831 9.89738H114.651V0.40625H115.831V9.89738Z" fill="white"/>
<path d="M126.607 0.405957V1.47803H122.083V4.44781H126.195V5.51989H122.083V8.81993H126.607V9.89201H120.905V0.400879H126.607V0.405957Z" fill="white"/>
<path d="M137.34 0.40625V9.89738H136.188L132.104 2.71806V9.89738H130.924V0.40625H132.049L136.161 7.65415V0.40625H137.34Z" fill="white"/>
<path d="M147.474 3.36329C147.144 1.87713 146.39 1.36904 145.225 1.36904C143.772 1.36904 142.977 2.27598 142.977 4.62844V5.67256C142.977 8.02502 143.772 8.93196 145.225 8.93196C146.458 8.93196 147.157 8.32734 147.474 6.93771H148.61C148.309 9.06915 147.02 10.004 145.225 10.004C143.129 10.004 141.797 8.73888 141.797 5.67002V4.6259C141.797 1.55957 143.126 0.294434 145.225 0.294434C147.089 0.294434 148.324 1.2852 148.626 3.36075H147.474V3.36329Z" fill="white"/>
<path d="M158.51 0.405957V1.47803H153.986V4.44781H158.098V5.51989H153.986V8.81993H158.51V9.89201H152.808V0.400879H158.51V0.405957Z" fill="white"/>
</svg>
