<svg width="145" height="9" viewBox="0 0 145 12" fill="none" xmlns="http://www.w3.org/2000/svg">
<path d="M1.3626 5.44879V8.72917H0.289101V0.122773H3.03274C5.01617 0.122773 6.16338 1.12026 6.16338 2.7927C6.16338 4.46514 5.02769 5.44879 3.03274 5.44879H1.3603H1.3626ZM3.03504 4.47435C4.49325 4.47435 5.09219 3.85007 5.09219 2.79039C5.09219 1.73072 4.49325 1.09491 3.03504 1.09491H1.3626V4.47435H3.03504Z" fill="#2D2B80"/>
<path d="M14.8965 8.72917L13.0996 5.09864H11.0655V8.72917H9.99203V0.122773H12.7357C14.7191 0.122773 15.8663 0.945177 15.8663 2.61762C15.8663 3.82703 15.2674 4.58723 14.1708 4.91204L16.0921 8.72917H14.8942H14.8965ZM12.738 4.1265C14.1962 4.1265 14.7951 3.67729 14.7951 2.61762C14.7951 1.55794 14.1962 1.09491 12.738 1.09491H11.0655V4.1265H12.738Z" fill="#2D2B80"/>
<path d="M25.0878 0.122773V1.09491H20.9712V3.78786H24.7123V4.76H20.9712V7.75243H25.0878V8.72457H19.9V0.118169H25.0878V0.122773Z" fill="#2D2B80"/>
<path d="M33.7426 2.80421C33.4431 1.45658 32.7566 0.995855 31.6969 0.995855C30.3746 0.995855 29.6513 1.81826 29.6513 3.95143V4.89822C29.6513 7.03139 30.3746 7.85379 31.6969 7.85379C32.8188 7.85379 33.4546 7.30553 33.7426 6.04544H34.7769C34.5028 7.97819 33.3302 8.82592 31.6969 8.82592C29.7895 8.82592 28.5778 7.67871 28.5778 4.89591V3.94912C28.5778 1.16863 29.7872 0.0214198 31.6969 0.0214198C33.3924 0.0214198 34.5166 0.919834 34.7907 2.80191H33.7426V2.80421Z" fill="#2D2B80"/>
<path d="M39.7942 8.72917H38.7207V0.122773H39.7942V8.72917Z" fill="#2D2B80"/>
<path d="M48.8867 2.03019C48.426 1.43124 47.9261 0.995855 46.8411 0.995855C45.8436 0.995855 45.1686 1.44507 45.1686 2.34349C45.1686 3.3663 45.9426 3.71645 47.2027 3.93991C48.8613 4.22786 49.8726 4.82451 49.8726 6.42093C49.8726 7.5428 49.124 8.82823 46.9793 8.82823C45.5833 8.82823 44.5605 8.35368 43.9108 7.4184L44.7954 6.80794C45.3575 7.46908 45.8551 7.85609 46.977 7.85609C48.3868 7.85609 48.7969 7.20647 48.7969 6.47161C48.7969 5.66073 48.3845 5.11246 46.7627 4.86136C45.141 4.61257 44.0928 3.83855 44.0928 2.34118C44.0928 1.10643 44.9037 0.0214198 46.8733 0.0214198C48.2463 0.0214198 49.1055 0.482147 49.716 1.43125L48.8798 2.03019H48.8867Z" fill="#2D2B80"/>
<path d="M55.0973 8.72917H54.0238V0.122773H55.0973V8.72917Z" fill="#2D2B80"/>
<path d="M62.3952 8.82823C60.4878 8.82823 59.2761 7.68102 59.2761 4.89822V3.95143C59.2761 1.17094 60.4855 0.0237186 62.3952 0.0237186C64.3049 0.0237186 65.5144 1.17094 65.5144 3.95143V4.89822C65.5144 7.67871 64.3049 8.82823 62.3952 8.82823ZM60.3496 4.89822C60.3496 7.03139 61.0729 7.85379 62.3952 7.85379C63.7175 7.85379 64.4409 7.03139 64.4409 4.89822V3.95143C64.4409 1.81826 63.7175 0.995855 62.3952 0.995855C61.0729 0.995855 60.3496 1.81826 60.3496 3.95143V4.89822Z" fill="#2D2B80"/>
<path d="M75.4039 0.122773V8.72917H74.3557L70.64 2.21909V8.72917H69.5665V0.122773H70.5893L74.3304 6.69506V0.122773H75.4039Z" fill="#2D2B80"/>
<path d="M89.8615 2.03019C89.4008 1.43124 88.9009 0.995855 87.8159 0.995855C86.8184 0.995855 86.1434 1.44507 86.1434 2.34349C86.1434 3.3663 86.9175 3.71645 88.1775 3.93991C89.8362 4.22786 90.8475 4.82451 90.8475 6.42093C90.8475 7.5428 90.0988 8.82823 87.9541 8.82823C86.5581 8.82823 85.5353 8.35368 84.8857 7.4184L85.7703 6.80794C86.3323 7.46908 86.8299 7.85609 87.9518 7.85609C89.3616 7.85609 89.7717 7.20647 89.7717 6.47161C89.7717 5.66073 89.3593 5.11246 87.7376 4.86136C86.1158 4.61257 85.0676 3.83855 85.0676 2.34118C85.0676 1.10643 85.8785 0.0214198 87.8481 0.0214198C89.2211 0.0214198 90.0804 0.482147 90.6908 1.43125L89.8546 2.03019H89.8615Z" fill="#2D2B80"/>
<path d="M99.6036 2.80421C99.3041 1.45658 98.6177 0.995855 97.558 0.995855C96.2357 0.995855 95.5123 1.81826 95.5123 3.95143V4.89822C95.5123 7.03139 96.2357 7.85379 97.558 7.85379C98.6799 7.85379 99.3157 7.30553 99.6036 6.04544H100.638C100.364 7.97819 99.1913 8.82592 97.558 8.82592C95.6506 8.82592 94.4389 7.67871 94.4389 4.89591V3.94912C94.4389 1.16863 95.6483 0.0214198 97.558 0.0214198C99.2535 0.0214198 100.378 0.919834 100.652 2.80191H99.6036V2.80421Z" fill="#2D2B80"/>
<path d="M105.653 8.72917H104.579V0.122773H105.653V8.72917Z" fill="#2D2B80"/>
<path d="M115.457 0.122773V1.09491H111.341V3.78786H115.082V4.76H111.341V7.75243H115.457V8.72457H110.269V0.118169H115.457V0.122773Z" fill="#2D2B80"/>
<path d="M125.222 0.122773V8.72917H124.174L120.458 2.21909V8.72917H119.385V0.122773H120.408L124.149 6.69506V0.122773H125.222Z" fill="#2D2B80"/>
<path d="M134.442 2.80421C134.142 1.45658 133.456 0.995855 132.396 0.995855C131.074 0.995855 130.35 1.81826 130.35 3.95143V4.89822C130.35 7.03139 131.074 7.85379 132.396 7.85379C133.518 7.85379 134.154 7.30553 134.442 6.04544H135.476C135.202 7.97819 134.029 8.82592 132.396 8.82592C130.489 8.82592 129.277 7.67871 129.277 4.89591V3.94912C129.277 1.16863 130.486 0.0214198 132.396 0.0214198C134.091 0.0214198 135.216 0.919834 135.49 2.80191H134.442V2.80421Z" fill="#2D2B80"/>
<path d="M144.483 0.122773V1.09491H140.367V3.78786H144.108V4.76H140.367V7.75243H144.483V8.72457H139.295V0.118169H144.483V0.122773Z" fill="#2D2B80"/>
</svg>
