<svg width="330.688" height="43.393" viewBox="0 0 330.688 43.393" xmlns="http://www.w3.org/2000/svg"><g id="svgGroup" stroke-linecap="round" fill-rule="nonzero" font-size="9pt" stroke="#000000" stroke-width="0.25mm" fill="#000000" style="stroke:#000000;stroke-width:0.25mm;fill:#000000"><path d="M 0 37.248 L 4.032 32.384 Q 6.272 34.56 9.248 35.744 A 16.323 16.323 0 0 0 14.199 36.893 A 15.273 15.273 0 0 0 15.232 36.928 A 13.977 13.977 0 0 0 17.256 36.792 Q 19.382 36.48 20.672 35.456 A 4.676 4.676 0 0 0 22.506 32.073 A 5.988 5.988 0 0 0 22.528 31.552 A 5.859 5.859 0 0 0 22.421 30.397 Q 22.229 29.445 21.696 28.768 Q 20.864 27.712 19.424 26.944 A 28.174 28.174 0 0 0 17.969 26.224 Q 17.084 25.816 16.064 25.408 L 10.304 22.912 Q 8.256 22.016 6.304 20.576 Q 4.352 19.136 3.104 16.992 Q 1.873 14.878 1.856 11.86 A 15.035 15.035 0 0 1 1.856 11.776 Q 1.856 8.448 3.68 5.792 A 12.463 12.463 0 0 1 7.669 2.112 A 15.154 15.154 0 0 1 8.672 1.568 A 15.016 15.016 0 0 1 13.348 0.169 A 19.239 19.239 0 0 1 15.936 0 Q 19.712 0 23.072 1.376 A 17.868 17.868 0 0 1 27.307 3.802 A 16.096 16.096 0 0 1 28.8 5.12 L 24.896 9.984 A 17.877 17.877 0 0 0 21.75 7.92 A 15.91 15.91 0 0 0 20.608 7.392 Q 18.368 6.464 15.936 6.464 A 10.813 10.813 0 0 0 13.965 6.634 Q 12.807 6.848 11.882 7.335 A 6.029 6.029 0 0 0 11.168 7.776 A 4.32 4.32 0 0 0 9.814 9.308 Q 9.388 10.137 9.348 11.175 A 5.647 5.647 0 0 0 9.344 11.392 A 4.533 4.533 0 0 0 9.515 12.667 A 3.591 3.591 0 0 0 10.272 14.048 A 6.523 6.523 0 0 0 11.478 15.108 A 9.021 9.021 0 0 0 12.768 15.84 Q 14.336 16.576 16 17.28 L 21.696 19.648 Q 24.192 20.736 26.112 22.208 Q 28.032 23.68 29.088 25.792 A 9.45 9.45 0 0 1 29.878 28.134 Q 30.094 29.191 30.135 30.407 A 17.103 17.103 0 0 1 30.144 30.976 Q 30.144 34.368 28.352 37.184 Q 26.56 40 23.2 41.696 Q 19.988 43.318 15.518 43.389 A 25.95 25.95 0 0 1 15.104 43.392 Q 10.752 43.392 6.88 41.792 Q 3.008 40.192 0 37.248 Z" id="0" vector-effect="non-scaling-stroke"/><path d="M 63.616 42.624 L 37.76 42.624 L 37.76 0.768 L 62.976 0.768 L 62.976 7.04 L 45.184 7.04 L 45.184 17.728 L 60.224 17.728 L 60.224 24 L 45.184 24 L 45.184 36.352 L 63.616 36.352 L 63.616 42.624 Z" id="1" vector-effect="non-scaling-stroke"/><path d="M 78.912 42.624 L 72.192 42.624 L 72.192 0.768 L 81.088 0.768 L 88.256 21.248 Q 88.96 23.232 89.536 25.184 Q 90.112 27.136 90.688 29.44 L 90.944 29.44 Q 91.52 27.136 92.064 25.184 Q 92.608 23.232 93.248 21.248 L 100.416 0.768 L 109.248 0.768 L 109.248 42.624 L 102.4 42.624 L 102.4 23.552 Q 102.4 21.847 102.518 19.717 A 101.289 101.289 0 0 1 102.56 19.008 Q 102.72 16.448 102.976 13.92 Q 103.232 11.392 103.488 9.472 L 103.232 9.472 L 99.904 20.096 L 93.12 38.784 L 88.128 38.784 L 81.344 20.096 L 78.144 9.472 L 77.888 9.472 Q 78.144 11.392 78.368 13.92 Q 78.592 16.448 78.752 19.008 Q 78.912 21.568 78.912 23.552 L 78.912 42.624 Z" id="2" vector-effect="non-scaling-stroke"/><path d="M 134.336 42.624 L 119.872 42.624 L 119.872 0.768 L 133.248 0.768 A 32.547 32.547 0 0 1 137.11 0.986 Q 139.11 1.226 140.848 1.728 A 20.001 20.001 0 0 1 140.96 1.76 A 12.86 12.86 0 0 1 143.716 2.916 A 9.835 9.835 0 0 1 146.272 4.992 Q 148.094 7.083 148.215 10.568 A 14.495 14.495 0 0 1 148.224 11.072 A 11.577 11.577 0 0 1 147.774 14.352 A 9.933 9.933 0 0 1 146.72 16.736 Q 145.216 19.2 142.4 20.16 L 142.4 20.416 A 12.827 12.827 0 0 1 145.253 21.343 A 9.488 9.488 0 0 1 148.256 23.52 Q 150.4 25.856 150.4 30.016 A 14.556 14.556 0 0 1 150.07 33.2 A 10.299 10.299 0 0 1 148.32 37.12 A 11.714 11.714 0 0 1 143.905 40.725 A 14.704 14.704 0 0 1 142.592 41.28 A 21.429 21.429 0 0 1 137.922 42.402 A 27.931 27.931 0 0 1 134.336 42.624 Z M 127.296 23.616 L 127.296 36.864 L 133.568 36.864 Q 136.586 36.864 138.698 36.137 A 8.306 8.306 0 0 0 140.672 35.168 A 5.515 5.515 0 0 0 143.065 31.307 A 8.523 8.523 0 0 0 143.168 29.952 Q 143.168 26.624 140.736 25.12 A 8.401 8.401 0 0 0 138.69 24.234 Q 136.602 23.616 133.568 23.616 L 127.296 23.616 Z M 127.296 6.528 L 127.296 18.048 L 132.608 18.048 A 18.783 18.783 0 0 0 134.84 17.925 Q 137.201 17.642 138.595 16.705 A 4.972 4.972 0 0 0 138.944 16.448 Q 140.928 14.848 140.928 12.16 A 7.183 7.183 0 0 0 140.752 10.514 Q 140.495 9.42 139.859 8.657 A 4.068 4.068 0 0 0 138.88 7.808 A 6.948 6.948 0 0 0 137.187 7.067 Q 135.541 6.573 133.171 6.532 A 25.172 25.172 0 0 0 132.736 6.528 L 127.296 6.528 Z" id="3" vector-effect="non-scaling-stroke"/><path d="M 182.912 42.624 L 158.08 42.624 L 158.08 0.768 L 165.504 0.768 L 165.504 36.352 L 182.912 36.352 L 182.912 42.624 Z" id="4" vector-effect="non-scaling-stroke"/><path d="M 192.32 42.624 L 184.768 42.624 L 198.4 0.768 L 207.104 0.768 L 220.736 42.624 L 212.928 42.624 L 206.528 20.352 Q 205.504 17.024 204.576 13.504 Q 203.648 9.984 202.752 6.528 L 202.496 6.528 Q 201.664 10.048 200.736 13.536 Q 199.808 17.024 198.784 20.352 L 192.32 42.624 Z M 212.544 31.296 L 192.832 31.296 L 192.832 25.472 L 212.544 25.472 L 212.544 31.296 Z" id="5" vector-effect="non-scaling-stroke"/><path d="M 233.024 42.624 L 225.92 42.624 L 225.92 0.768 L 234.048 0.768 L 246.592 23.808 Q 247.744 25.92 248.8 28.352 Q 249.856 30.784 250.816 33.28 L 251.072 33.28 Q 250.816 29.888 250.496 26.208 Q 250.176 22.528 250.176 19.072 L 250.176 0.768 L 257.28 0.768 L 257.28 42.624 L 249.152 42.624 L 236.608 19.584 A 71.437 71.437 0 0 1 235.039 16.529 A 83.81 83.81 0 0 1 234.336 15.04 Q 233.216 12.608 232.256 10.112 L 232 10.112 Q 232.384 13.376 232.704 17.056 Q 233.024 20.736 233.024 24.32 L 233.024 42.624 Z" id="6" vector-effect="non-scaling-stroke"/><path d="M 297.024 5.312 L 293.056 9.856 A 11.591 11.591 0 0 0 290.574 7.878 A 10.492 10.492 0 0 0 289.504 7.328 Q 287.552 6.464 285.12 6.464 Q 281.792 6.464 279.136 8.32 Q 276.48 10.176 274.944 13.568 A 16.57 16.57 0 0 0 273.746 17.534 Q 273.429 19.323 273.409 21.36 A 28.081 28.081 0 0 0 273.408 21.632 A 26.331 26.331 0 0 0 273.651 25.305 Q 274.006 27.823 274.88 29.856 Q 276.352 33.28 279.04 35.104 A 10.592 10.592 0 0 0 284.16 36.879 A 13.277 13.277 0 0 0 285.312 36.928 A 11.393 11.393 0 0 0 288.005 36.621 A 9.445 9.445 0 0 0 290.112 35.84 Q 292.224 34.752 293.952 32.96 L 297.728 37.376 A 18.845 18.845 0 0 1 294.139 40.602 A 16.542 16.542 0 0 1 291.968 41.856 Q 288.768 43.392 284.8 43.392 A 19.47 19.47 0 0 1 277.82 42.158 A 18.293 18.293 0 0 1 275.168 40.896 A 17.277 17.277 0 0 1 269.066 34.881 A 21.264 21.264 0 0 1 268.32 33.568 A 21.241 21.241 0 0 1 266.347 27.847 Q 265.792 25.064 265.792 21.824 Q 265.792 16.704 267.264 12.64 Q 268.736 8.576 271.392 5.76 Q 274.048 2.944 277.504 1.472 A 18.686 18.686 0 0 1 284.681 0.002 A 21.263 21.263 0 0 1 284.928 0 A 17.116 17.116 0 0 1 288.782 0.417 A 13.798 13.798 0 0 1 291.968 1.568 A 19.735 19.735 0 0 1 294.905 3.391 A 15.526 15.526 0 0 1 297.024 5.312 Z" id="7" vector-effect="non-scaling-stroke"/><path d="M 330.688 42.624 L 304.832 42.624 L 304.832 0.768 L 330.048 0.768 L 330.048 7.04 L 312.256 7.04 L 312.256 17.728 L 327.296 17.728 L 327.296 24 L 312.256 24 L 312.256 36.352 L 330.688 36.352 L 330.688 42.624 Z" id="8" vector-effect="non-scaling-stroke"/></g></svg>