<svg width="259.25" height="33.901" viewBox="0 0 259.25 33.901" xmlns="http://www.w3.org/2000/svg"><g id="svgGroup" stroke-linecap="round" fill-rule="nonzero" font-size="9pt" stroke="#000" stroke-width="0.25mm" fill="#000" style="stroke:#000;stroke-width:0.25mm;fill:#000"><path d="M 61.65 33.3 L 56.4 33.3 L 56.4 0.6 L 63.35 0.6 L 68.95 16.6 Q 69.5 18.15 69.95 19.675 Q 70.4 21.2 70.85 23 L 71.05 23 A 144.934 144.934 0 0 1 71.494 21.269 A 114.262 114.262 0 0 1 71.925 19.675 Q 72.35 18.15 72.85 16.6 L 78.45 0.6 L 85.35 0.6 L 85.35 33.3 L 80 33.3 L 80 18.4 Q 80 16.85 80.125 14.85 Q 80.25 12.85 80.45 10.875 Q 80.65 8.9 80.85 7.4 L 80.65 7.4 L 78.05 15.7 L 72.75 30.3 L 68.85 30.3 L 63.55 15.7 L 61.05 7.4 L 60.85 7.4 A 63.597 63.597 0 0 1 61.02 8.804 Q 61.1 9.524 61.175 10.329 A 111.851 111.851 0 0 1 61.225 10.875 Q 61.4 12.85 61.525 14.85 A 71.213 71.213 0 0 1 61.61 16.514 Q 61.64 17.275 61.648 17.955 A 40.839 40.839 0 0 1 61.65 18.4 L 61.65 33.3 Z M 182.05 33.3 L 176.5 33.3 L 176.5 0.6 L 182.85 0.6 L 192.65 18.6 A 42.444 42.444 0 0 1 193.945 21.187 A 49.102 49.102 0 0 1 194.375 22.15 Q 195.2 24.05 195.95 26 L 196.15 26 A 471.676 471.676 0 0 0 195.822 21.899 A 533.123 533.123 0 0 0 195.7 20.475 A 65.189 65.189 0 0 1 195.454 15.578 A 59.039 59.039 0 0 1 195.45 14.9 L 195.45 0.6 L 201 0.6 L 201 33.3 L 194.65 33.3 L 184.85 15.3 A 55.81 55.81 0 0 1 183.624 12.913 A 65.476 65.476 0 0 1 183.075 11.75 Q 182.2 9.85 181.45 7.9 L 181.25 7.9 Q 181.55 10.45 181.8 13.325 Q 182.05 16.2 182.05 19 L 182.05 33.3 Z M 49.7 33.3 L 29.5 33.3 L 29.5 0.6 L 49.2 0.6 L 49.2 5.5 L 35.3 5.5 L 35.3 13.85 L 47.05 13.85 L 47.05 18.75 L 35.3 18.75 L 35.3 28.4 L 49.7 28.4 L 49.7 33.3 Z M 0 29.1 L 3.15 25.3 Q 4.9 27 7.225 27.925 A 12.753 12.753 0 0 0 11.093 28.823 A 11.932 11.932 0 0 0 11.9 28.85 A 10.919 10.919 0 0 0 13.481 28.743 Q 14.285 28.625 14.937 28.377 A 4.54 4.54 0 0 0 16.15 27.7 Q 17.6 26.55 17.6 24.65 A 4.577 4.577 0 0 0 17.516 23.748 Q 17.366 23.004 16.95 22.475 Q 16.3 21.65 15.175 21.05 Q 14.125 20.49 12.748 19.93 A 36.684 36.684 0 0 0 12.55 19.85 L 8.05 17.9 A 15.842 15.842 0 0 1 5.5 16.482 A 18.069 18.069 0 0 1 4.925 16.075 Q 3.4 14.95 2.425 13.275 A 6.935 6.935 0 0 1 1.637 11.161 Q 1.456 10.279 1.45 9.266 A 11.758 11.758 0 0 1 1.45 9.2 Q 1.45 6.6 2.875 4.525 Q 4.3 2.45 6.775 1.225 A 11.731 11.731 0 0 1 10.428 0.132 A 15.031 15.031 0 0 1 12.45 0 Q 15.4 0 18.025 1.075 A 13.959 13.959 0 0 1 21.333 2.97 A 12.575 12.575 0 0 1 22.5 4 L 19.45 7.8 A 13.966 13.966 0 0 0 16.992 6.187 A 12.43 12.43 0 0 0 16.1 5.775 Q 14.35 5.05 12.45 5.05 Q 10.576 5.05 9.283 5.731 A 4.711 4.711 0 0 0 8.725 6.075 Q 7.368 7.051 7.303 8.731 A 4.412 4.412 0 0 0 7.3 8.9 A 3.541 3.541 0 0 0 7.434 9.896 A 2.805 2.805 0 0 0 8.025 10.975 A 5.096 5.096 0 0 0 8.968 11.803 A 7.048 7.048 0 0 0 9.975 12.375 Q 11.2 12.95 12.5 13.5 L 16.95 15.35 Q 18.9 16.2 20.4 17.35 Q 21.9 18.5 22.725 20.15 A 7.383 7.383 0 0 1 23.342 21.98 Q 23.511 22.805 23.543 23.755 A 13.362 13.362 0 0 1 23.55 24.2 Q 23.55 26.85 22.15 29.05 A 9.472 9.472 0 0 1 19.361 31.858 A 11.918 11.918 0 0 1 18.125 32.575 A 11.84 11.84 0 0 1 15.033 33.609 Q 13.675 33.873 12.123 33.898 A 20.273 20.273 0 0 1 11.8 33.9 Q 8.4 33.9 5.375 32.65 Q 2.35 31.4 0 29.1 Z M 150.25 33.3 L 144.35 33.3 L 155 0.6 L 161.8 0.6 L 172.45 33.3 L 166.35 33.3 L 161.35 15.9 Q 160.55 13.3 159.825 10.55 Q 159.1 7.8 158.4 5.1 L 158.2 5.1 Q 157.55 7.85 156.825 10.575 Q 156.1 13.3 155.3 15.9 L 150.25 33.3 Z M 232.05 4.15 L 228.95 7.7 A 9.056 9.056 0 0 0 227.011 6.154 A 8.197 8.197 0 0 0 226.175 5.725 A 7.869 7.869 0 0 0 223.901 5.116 A 9.791 9.791 0 0 0 222.75 5.05 Q 220.15 5.05 218.075 6.5 Q 216 7.95 214.8 10.6 A 12.945 12.945 0 0 0 213.864 13.698 Q 213.616 15.096 213.601 16.687 A 21.938 21.938 0 0 0 213.6 16.9 A 20.571 20.571 0 0 0 213.79 19.77 Q 214.011 21.337 214.489 22.664 A 11.851 11.851 0 0 0 214.75 23.325 A 10.427 10.427 0 0 0 216.087 25.623 A 8.37 8.37 0 0 0 218 27.425 A 8.275 8.275 0 0 0 222 28.812 A 10.372 10.372 0 0 0 222.9 28.85 A 8.901 8.901 0 0 0 225.004 28.61 A 7.379 7.379 0 0 0 226.65 28 Q 228.3 27.15 229.65 25.75 L 232.6 29.2 A 14.723 14.723 0 0 1 229.796 31.721 A 12.923 12.923 0 0 1 228.1 32.7 Q 225.6 33.9 222.5 33.9 A 15.211 15.211 0 0 1 217.047 32.936 A 14.291 14.291 0 0 1 214.975 31.95 A 13.498 13.498 0 0 1 210.208 27.251 A 16.613 16.613 0 0 1 209.625 26.225 A 16.594 16.594 0 0 1 208.084 21.756 Q 207.65 19.581 207.65 17.05 Q 207.65 13.05 208.8 9.875 A 16.472 16.472 0 0 1 210.492 6.449 A 14.031 14.031 0 0 1 212.025 4.5 Q 214.1 2.3 216.8 1.15 A 14.598 14.598 0 0 1 222.407 0.001 A 16.617 16.617 0 0 1 222.6 0 A 13.372 13.372 0 0 1 225.611 0.326 A 10.78 10.78 0 0 1 228.1 1.225 A 15.418 15.418 0 0 1 230.395 2.649 A 12.13 12.13 0 0 1 232.05 4.15 Z M 249.4 33.3 L 243.6 33.3 L 243.6 21.15 L 233.8 0.6 L 240 0.6 L 243.55 8.95 Q 244.25 10.8 244.95 12.525 Q 245.65 14.25 246.45 16.15 L 246.65 16.15 A 352.169 352.169 0 0 1 247.822 13.399 A 306.574 306.574 0 0 1 248.2 12.525 Q 248.95 10.8 249.65 8.95 L 253.2 0.6 L 259.25 0.6 L 249.4 21.15 L 249.4 33.3 Z M 104.95 33.3 L 93.65 33.3 L 93.65 0.6 L 104.1 0.6 A 25.427 25.427 0 0 1 107.117 0.771 Q 108.73 0.964 110.125 1.375 Q 112.75 2.15 114.275 3.9 A 5.915 5.915 0 0 1 115.524 6.322 Q 115.757 7.209 115.793 8.257 A 11.325 11.325 0 0 1 115.8 8.65 A 9.044 9.044 0 0 1 115.449 11.213 A 7.76 7.76 0 0 1 114.625 13.075 Q 113.45 15 111.25 15.75 L 111.25 15.95 A 10.021 10.021 0 0 1 113.479 16.675 A 7.412 7.412 0 0 1 115.825 18.375 A 6.035 6.035 0 0 1 117.179 20.879 Q 117.439 21.811 117.488 22.921 A 11.946 11.946 0 0 1 117.5 23.45 A 11.372 11.372 0 0 1 117.242 25.937 A 8.046 8.046 0 0 1 115.875 29 Q 114.25 31.2 111.4 32.25 Q 108.55 33.3 104.95 33.3 Z M 99.45 18.45 L 99.45 28.8 L 104.35 28.8 A 15.74 15.74 0 0 0 106.439 28.671 Q 107.495 28.529 108.358 28.232 A 6.489 6.489 0 0 0 109.9 27.475 Q 111.85 26.15 111.85 23.4 A 5.585 5.585 0 0 0 111.664 21.914 A 3.784 3.784 0 0 0 109.95 19.625 A 6.564 6.564 0 0 0 108.352 18.932 Q 106.72 18.45 104.35 18.45 L 99.45 18.45 Z M 99.45 5.1 L 99.45 14.1 L 103.6 14.1 Q 106.715 14.1 108.277 13.051 A 3.884 3.884 0 0 0 108.55 12.85 Q 110.1 11.6 110.1 9.5 A 5.611 5.611 0 0 0 109.963 8.214 Q 109.631 6.807 108.5 6.1 Q 106.986 5.154 104.04 5.103 A 19.666 19.666 0 0 0 103.7 5.1 L 99.45 5.1 Z M 142.9 33.3 L 123.5 33.3 L 123.5 0.6 L 129.3 0.6 L 129.3 28.4 L 142.9 28.4 L 142.9 33.3 Z M 166.05 24.45 L 150.65 24.45 L 150.65 19.9 L 166.05 19.9 L 166.05 24.45 Z" vector-effect="non-scaling-stroke"/></g></svg>