<svg width="157.464" height="48.817" viewBox="0 0 157.464 48.817" xmlns="http://www.w3.org/2000/svg"><g id="svgGroup" stroke-linecap="round" fill-rule="evenodd" font-size="9pt" stroke="#ffffff" stroke-width="0" fill="#ffffff" style="stroke:#ffffff;stroke-width:0;fill:#ffffff"><path d="M 36.504 5.976 L 32.04 11.088 Q 30.312 9.36 28.08 8.316 A 10.283 10.283 0 0 0 25.793 7.576 Q 24.713 7.353 23.463 7.294 A 19.592 19.592 0 0 0 22.536 7.272 A 14.41 14.41 0 0 0 18.384 7.851 A 12.364 12.364 0 0 0 15.192 9.324 A 12.892 12.892 0 0 0 10.995 13.823 A 16.124 16.124 0 0 0 10.296 15.192 Q 8.69 18.74 8.577 23.595 A 31.89 31.89 0 0 0 8.568 24.336 A 28.809 28.809 0 0 0 8.884 28.714 Q 9.24 31.031 9.999 32.997 A 17.407 17.407 0 0 0 10.224 33.552 Q 11.88 37.44 15.084 39.492 A 12.623 12.623 0 0 0 19.409 41.206 A 17.77 17.77 0 0 0 22.968 41.544 A 13.471 13.471 0 0 0 26.102 41.188 A 12.305 12.305 0 0 0 26.784 41.004 A 9.39 9.39 0 0 0 28.282 40.419 A 6.819 6.819 0 0 0 29.736 39.456 L 29.736 29.304 L 20.808 29.304 L 20.808 22.464 L 37.224 22.464 L 37.224 43.2 Q 34.848 45.576 30.924 47.196 A 21.38 21.38 0 0 1 25.103 48.658 A 26.42 26.42 0 0 1 22.176 48.816 A 24.514 24.514 0 0 1 15.109 47.826 A 21.501 21.501 0 0 1 10.8 46.008 A 19.595 19.595 0 0 1 3.249 38.434 A 23.644 23.644 0 0 1 2.88 37.764 A 20.836 20.836 0 0 1 2.835 37.679 Q 0.125 32.505 0.006 25.226 A 41.174 41.174 0 0 1 0 24.552 Q 0 18.792 1.692 14.256 A 23.471 23.471 0 0 1 4.502 8.876 A 20.804 20.804 0 0 1 6.444 6.516 Q 9.504 3.312 13.536 1.656 A 22.43 22.43 0 0 1 21.304 0.017 A 25.913 25.913 0 0 1 22.248 0 A 23.601 23.601 0 0 1 26.094 0.297 Q 28.29 0.66 30.115 1.467 A 13.985 13.985 0 0 1 30.816 1.8 Q 34.344 3.6 36.504 5.976 Z M 157.464 47.952 L 128.376 47.952 L 128.376 0.864 L 156.744 0.864 L 156.744 7.92 L 136.728 7.92 L 136.728 19.944 L 153.648 19.944 L 153.648 27 L 136.728 27 L 136.728 40.896 L 157.464 40.896 L 157.464 47.952 Z M 85.896 41.904 L 90.432 36.432 Q 92.952 38.88 96.3 40.212 A 18.364 18.364 0 0 0 101.87 41.505 A 17.182 17.182 0 0 0 103.032 41.544 A 15.724 15.724 0 0 0 105.309 41.391 Q 106.467 41.221 107.405 40.863 A 6.538 6.538 0 0 0 109.152 39.888 A 5.26 5.26 0 0 0 111.215 36.082 A 6.737 6.737 0 0 0 111.24 35.496 Q 111.24 33.864 110.58 32.764 A 3.838 3.838 0 0 0 110.304 32.364 A 7.009 7.009 0 0 0 109.035 31.13 A 9.491 9.491 0 0 0 107.748 30.312 A 31.696 31.696 0 0 0 106.111 29.502 Q 105.116 29.043 103.968 28.584 L 97.488 25.776 A 22.813 22.813 0 0 1 93.816 23.734 A 26.019 26.019 0 0 1 92.988 23.148 Q 90.792 21.528 89.388 19.116 Q 87.984 16.704 87.984 13.248 Q 87.984 9.504 90.036 6.516 A 14.021 14.021 0 0 1 94.524 2.376 A 17.048 17.048 0 0 1 95.652 1.764 A 16.893 16.893 0 0 1 100.913 0.19 A 21.644 21.644 0 0 1 103.824 0 Q 108.072 0 111.852 1.548 Q 115.632 3.096 118.296 5.76 L 113.904 11.232 A 20.111 20.111 0 0 0 110.365 8.91 A 17.899 17.899 0 0 0 109.08 8.316 Q 106.56 7.272 103.824 7.272 A 12.165 12.165 0 0 0 101.607 7.463 Q 100.304 7.705 99.263 8.252 A 6.783 6.783 0 0 0 98.46 8.748 A 4.86 4.86 0 0 0 96.937 10.472 Q 96.458 11.404 96.413 12.572 A 6.353 6.353 0 0 0 96.408 12.816 A 5.1 5.1 0 0 0 96.601 14.25 A 4.039 4.039 0 0 0 97.452 15.804 A 7.338 7.338 0 0 0 98.809 16.996 A 10.149 10.149 0 0 0 100.26 17.82 Q 102.024 18.648 103.896 19.44 L 110.304 22.104 A 25.321 25.321 0 0 1 113.561 23.803 A 21.253 21.253 0 0 1 115.272 24.984 Q 117.432 26.64 118.62 29.016 A 10.632 10.632 0 0 1 119.509 31.651 Q 119.752 32.839 119.798 34.207 A 19.242 19.242 0 0 1 119.808 34.848 Q 119.808 38.664 117.792 41.832 A 13.64 13.64 0 0 1 113.776 45.876 A 17.162 17.162 0 0 1 111.996 46.908 A 17.049 17.049 0 0 1 107.543 48.397 Q 105.588 48.777 103.354 48.813 A 29.192 29.192 0 0 1 102.888 48.816 Q 97.992 48.816 93.636 47.016 Q 89.28 45.216 85.896 41.904 Z M 80.352 5.976 L 75.888 11.088 Q 74.088 9.216 71.892 8.244 A 11.332 11.332 0 0 0 68.618 7.367 A 14.1 14.1 0 0 0 66.96 7.272 Q 63.216 7.272 60.228 9.36 Q 57.24 11.448 55.512 15.264 A 18.641 18.641 0 0 0 54.164 19.725 Q 53.808 21.738 53.786 24.03 A 31.591 31.591 0 0 0 53.784 24.336 A 29.622 29.622 0 0 0 54.058 28.468 Q 54.376 30.726 55.065 32.637 A 17.065 17.065 0 0 0 55.44 33.588 A 15.014 15.014 0 0 0 57.365 36.898 A 12.053 12.053 0 0 0 60.12 39.492 A 11.916 11.916 0 0 0 65.88 41.489 A 14.936 14.936 0 0 0 67.176 41.544 A 12.817 12.817 0 0 0 70.206 41.199 A 10.625 10.625 0 0 0 72.576 40.32 Q 74.952 39.096 76.896 37.08 L 81.144 42.048 A 21.201 21.201 0 0 1 77.107 45.678 A 18.61 18.61 0 0 1 74.664 47.088 Q 71.064 48.816 66.6 48.816 A 21.904 21.904 0 0 1 58.748 47.428 A 20.58 20.58 0 0 1 55.764 46.008 A 19.437 19.437 0 0 1 48.9 39.241 A 23.923 23.923 0 0 1 48.06 37.764 A 23.896 23.896 0 0 1 45.841 31.328 Q 45.294 28.589 45.226 25.456 A 41.415 41.415 0 0 1 45.216 24.552 Q 45.216 18.792 46.872 14.22 A 23.72 23.72 0 0 1 49.308 9.286 A 20.205 20.205 0 0 1 51.516 6.48 Q 54.504 3.312 58.392 1.656 A 21.022 21.022 0 0 1 66.466 0.002 A 23.923 23.923 0 0 1 66.744 0 A 19.255 19.255 0 0 1 71.08 0.469 A 15.523 15.523 0 0 1 74.664 1.764 A 22.202 22.202 0 0 1 77.969 3.815 A 17.467 17.467 0 0 1 80.352 5.976 Z" vector-effect="non-scaling-stroke"/></g></svg>