<svg width="127" height="84" viewBox="0 0 127 84" fill="none" xmlns="http://www.w3.org/2000/svg">
<g style="mix-blend-mode:luminosity" clip-path="url(#clip0_18_225)">
<path d="M29.1194 3.57059C29.1194 2.87991 28.848 2.22377 27.9399 1.89224C27.1814 1.62288 26.4855 1.52964 25.7304 1.41222C24.6379 1.22919 24.8536 0.175914 25.8174 0.175914C26.4541 0.175914 29.4813 0.421104 33.0755 0.421104C35.1597 0.421104 38.159 0.331316 39.6065 0.238074C40.5146 0.175914 40.6051 1.13941 39.9718 1.32244C39.3351 1.50201 36.3393 2.22377 30.9914 7.08267C25.459 12.1281 18.3227 19.5977 18.3227 19.5977C18.3227 19.5977 34.349 38.5706 37.1604 40.8187C40.0658 43.1636 42.0595 43.3397 44.2376 43.5193C44.7804 43.5504 44.9614 44.6036 44.2376 44.6036H31.722C31.722 44.6036 16.2072 25.9968 13.6672 24.284C13.2114 24.0146 12.1258 23.652 12.0318 24.9159C11.9414 26.0866 11.8509 35.9598 12.1223 38.1216C12.3937 40.2835 13.3018 43.4364 18.4688 43.4364C19.1055 43.4364 19.4674 44.6313 18.5593 44.6071C15.5043 44.4551 13.2044 44.4551 9.42571 44.4551C6.16198 44.4551 1.59694 44.6071 0.960203 44.6071C-0.125385 44.6071 -0.125385 43.616 0.869738 43.5227C2.32067 43.4364 5.76881 43.2534 5.98105 37.7625C6.22113 32.092 6.06804 8.19811 5.98105 5.59081C5.94974 3.7916 4.40834 1.35697 0.417409 1.35697C-0.212372 1.34661 -0.118427 0.269155 0.605299 0.269155H17.6616C18.2983 0.269155 18.6602 1.32244 17.5711 1.41222C16.4855 1.49856 12.3415 1.61943 12.2232 7.11375C12.0701 12.6046 12.0701 21.1276 12.0701 21.4902C12.0701 21.9426 12.251 22.3915 12.8843 21.9426C14.8502 20.6199 20.6887 14.946 25.0415 10.0837C26.7638 8.16013 27.9468 6.48178 28.761 4.92086C28.942 4.58933 29.1264 4.11277 29.1264 3.56713M50.5911 18.7896V3.51188C50.5911 1.61943 51.9481 1.0807 53.399 0.990911C53.9453 0.990911 54.0358 0.269155 53.312 0.269155H44.2376C43.6009 0.269155 43.5104 0.959831 44.1472 0.990911C45.5111 1.13941 47.143 1.799 47.143 3.51188V18.7862C47.143 20.4956 46.5062 21.5765 44.509 21.5765C43.7261 21.5765 43.9036 22.2361 44.509 22.2361H53.399C53.8548 22.2361 53.9766 21.5765 53.2181 21.5765C51.3113 21.5765 50.5911 20.316 50.5911 18.7862M62.296 31.9954C62.4769 31.9954 62.5987 31.9056 62.6544 31.726L64.1088 27.133C64.1992 26.8602 64.0775 26.6806 63.8374 26.6806C63.7469 26.6806 63.6217 26.7117 63.5347 26.8015C63.2598 27.0708 62.9292 27.3402 62.6544 27.3402C62.5047 27.3402 62.383 27.2504 62.2333 27.133C60.932 25.541 58.8478 25.3027 57.8492 25.3027C53.2216 25.3027 49.2306 28.3037 46.875 31.9954C45.452 34.1882 44.7247 36.5883 44.7247 38.9574C44.7247 42.7388 47.3587 44.8695 50.8068 44.8695C52.3482 44.8695 53.5278 44.69 55.612 43.8163C56.0678 43.6367 56.5792 43.4295 56.8819 43.4295C57.3934 43.4295 57.4247 44.1789 57.4874 44.8695C57.4874 45.1389 57.6718 45.2252 57.8527 45.2252C57.9745 45.2252 58.1241 45.17 58.2146 44.9593L60.1526 39.4616C60.3023 39.0126 60.1213 38.8365 59.9369 38.8365C59.6655 38.8365 59.5159 38.9539 59.3002 39.3165C58.4233 40.6702 57.8179 41.537 54.7664 43.0082C53.4964 43.6091 52.0142 43.9682 50.8381 43.9682C48.2668 43.9682 47.2682 42.0171 47.2682 39.5548C47.2682 36.3155 48.8096 32.9243 51.1722 30.1029C52.6823 28.2415 54.9822 26.1419 57.6753 26.1419C60.3684 26.1419 62.1498 28.0343 61.8784 31.543C61.8471 31.8434 62.0594 31.9954 62.3029 31.9954M56.4296 0.269155C55.7929 0.269155 55.7929 0.901123 56.1582 0.990911C56.8506 1.13941 58.305 1.26027 58.305 3.15273C58.3329 7.6214 58.3329 13.4749 58.152 18.2509C58.1206 19.9603 57.6092 21.4004 56.1269 21.5834C55.5841 21.6145 55.5841 22.243 55.9425 22.243H62.4734C62.8388 22.243 62.9571 21.6697 62.5047 21.5834C61.5061 21.4004 59.8708 21.4004 59.7525 18.2509C59.5994 15.1912 59.5124 3.60167 59.5124 3.60167L75.8972 21.7008H77.2541C77.2541 21.7008 77.2541 4.77236 77.3446 3.48425C77.4351 1.98548 77.95 1.17049 79.5819 1.05307C80.3961 0.990911 80.243 0.269155 79.7002 0.269155H73.051C72.2611 0.269155 72.4455 0.990911 72.8109 0.990911C73.5346 1.0807 75.8032 1.34661 75.8937 3.51188C75.9807 6.66136 76.1338 16.4793 76.1338 16.4793L61.5688 0.269155H56.4296ZM70.9946 30.1927C73.9 30.1927 74.4427 32.7137 74.4427 35.055C74.4427 38.7778 70.9946 44.7176 66.8297 44.7176C64.2027 44.7176 63.2006 42.6179 63.2006 40.4561C63.2006 35.2657 66.9202 30.1927 70.9946 30.1927ZM71.6 31.0319C68.7364 31.0319 64.6202 37.7832 64.6202 41.8996C64.6202 42.9771 65.1004 43.7852 66.2556 43.7852C69.067 43.7852 73.2667 36.8853 73.2667 33.2524C73.2667 32.168 72.964 31.0319 71.6035 31.0319M82.3689 26.5321C82.3689 26.6184 82.3376 26.8015 82.2472 26.981C79.7976 32.2647 77.3794 37.5173 75.0169 42.801C74.8986 43.0703 74.6585 43.6091 74.6585 43.9717C74.6585 44.4206 74.9925 44.8108 75.4727 44.8108C75.7127 44.8108 76.0468 44.7211 76.2277 44.6278C77.5603 44.0925 78.9521 42.649 79.7663 41.4196C79.9507 41.1503 79.6167 40.912 79.401 41.0881C79.0739 41.3885 78.131 42.649 77.1324 43.1878C76.9514 43.2775 76.774 43.2775 76.8923 42.9184L84.4531 26.2593C84.5749 25.9623 84.6375 25.7827 84.6375 25.6031C84.6375 25.389 84.4844 25.3027 84.2687 25.3027C83.9103 25.3027 83.4858 25.389 82.9396 25.4512C82.4838 25.4823 81.7009 25.541 81.0015 25.6031C80.8206 25.6031 80.7301 25.7827 80.7301 25.9036C80.7301 26.0832 80.8832 26.173 81.0641 26.173C81.4295 26.173 81.7879 26.173 82.181 26.2593C82.3341 26.3214 82.3655 26.4112 82.3655 26.5321M102.386 15.0358C102.386 13.2055 103.75 13.0259 104.926 12.9361C105.379 12.874 105.469 12.1522 104.836 12.1522H95.6709C95.0411 12.1522 95.0411 12.9638 95.6709 13.0259C97.4906 13.1434 98.9381 13.4749 98.9381 15.2119V18.4857C98.9381 19.204 98.5727 19.7151 98.183 20.0156C96.579 21.3348 94.5505 21.4246 93.371 21.4246C87.5672 21.4246 84.9646 16.4448 84.9646 11.4926C84.9646 7.466 87.021 1.13595 93.7363 1.13595C99.7558 1.13595 101.93 5.01064 102.658 6.47833C102.905 6.93072 103.472 6.84094 103.472 6.47833V1.70921C103.472 1.26027 102.811 1.17049 102.658 1.70921C102.536 2.25139 102.174 2.614 101.722 2.614C101.36 2.614 100.939 2.34118 100.758 2.22377C98.9381 1.08415 97.2123 0.179367 93.7711 0.179367C88.2075 0.179367 81.3425 2.94207 81.3425 11.3441C81.3425 19.7462 87.783 22.4191 93.4092 22.4191C99.0355 22.4191 101.847 19.6288 102.39 19.2662V15.0358H102.386ZM89.1121 26.5321C89.1121 26.6184 89.0808 26.8015 88.9903 26.981C86.5408 32.2647 84.1226 37.5173 81.767 42.801C81.6452 43.0703 81.4051 43.6091 81.4051 43.9717C81.4051 44.4206 81.7392 44.8108 82.2193 44.8108C82.4594 44.8108 82.7934 44.7211 82.9778 44.6278C84.3105 44.0925 85.6988 42.649 86.513 41.4196C86.6974 41.1503 86.3633 40.912 86.1476 41.0881C85.8136 41.3885 84.8776 42.649 83.8825 43.1878C83.7016 43.2775 83.5172 43.2775 83.6424 42.9184L91.1998 26.2593C91.3216 25.9623 91.3842 25.7827 91.3842 25.6031C91.3842 25.389 91.2311 25.3027 91.0189 25.3027C90.6535 25.3027 90.229 25.389 89.6862 25.4512C89.2304 25.4823 88.4475 25.541 87.7551 25.6031C87.5707 25.6031 87.4802 25.7827 87.4802 25.9036C87.4802 26.0832 87.6299 26.173 87.8143 26.173C88.1796 26.173 88.5415 26.173 88.9347 26.2593C89.0843 26.3214 89.1156 26.4112 89.1156 26.5321M97.943 41.5405C96.673 43.1878 94.6758 44.7176 92.1949 44.7176C90.2882 44.7176 89.1399 43.3708 89.1399 41.6303C89.1399 36.2568 95.1281 30.5829 99.119 30.5829C100.476 30.5829 101.475 31.0975 101.475 32.5341C101.475 34.6337 99.6305 35.7768 96.3041 36.7645C95.3682 37.0373 93.3083 37.4862 92.3132 37.6934C91.8574 38.4152 91.2833 39.8552 91.2833 40.9949C91.2833 42.5282 92.0418 43.4295 93.4614 43.4295C95.0968 43.4295 96.6382 42.1656 97.4837 41.1779C97.7551 40.9085 98.1796 41.2677 97.9395 41.5405M96.1267 35.9564C98.0021 35.3555 99.7279 34.3644 99.7279 32.7171C99.7279 31.8434 99.3034 31.4877 98.4579 31.4877C97.3967 31.4877 96.3668 32.2647 95.737 32.8967C94.6758 33.9154 93.6458 35.1483 92.7725 36.7092C93.4684 36.6781 94.8567 36.3466 96.1267 35.9564ZM114.815 31.8434C115.18 31.8434 115.511 31.6638 115.511 31.0353C115.511 30.4966 114.992 30.3136 114.512 30.3136C113.969 30.3136 113.273 30.4655 112.546 30.9455C112.365 31.0975 111.909 31.3081 111.638 31.1286C111.064 30.7383 110.552 30.469 109.189 30.469C107.825 30.469 105.834 31.277 104.561 32.9865C103.653 34.2504 103.468 35.1517 103.468 36.0462C103.468 36.9406 103.837 37.6105 104.109 37.9697C104.164 38.0595 104.196 38.1216 104.196 38.2149C104.196 38.4221 103.924 38.5775 103.468 38.6949C102.654 38.9643 101.294 39.7482 101.294 41.1261C101.294 42.0274 102.017 42.8942 102.835 43.4398C102.835 43.4398 101.172 43.8888 99.8393 44.6105C98.8093 45.1803 97.6611 46.0506 97.6611 47.3111C97.6611 48.7511 98.8998 51.0925 104.015 51.0925C107.007 51.0925 108.882 50.0082 109.61 49.2001C110.152 48.5681 110.239 47.8464 110.239 47.4009C110.239 45.7778 108.43 44.2479 106.433 43.1705C105.163 42.4487 103.287 41.575 103.287 40.2869C103.287 39.9554 103.378 39.5962 103.743 39.3856C103.983 39.2026 104.38 39.1162 104.797 39.1162C105.372 39.1162 106.099 39.2958 106.61 39.2958C108.246 39.2958 110.452 38.7571 111.816 35.8735C112.174 35.0654 112.327 34.2573 112.327 33.5632C112.327 32.6619 112.174 32.4512 112.174 32.0333C112.174 31.6707 112.536 31.4635 113.235 31.4635C114.234 31.4635 114.234 31.8503 114.808 31.8503M104.262 50.2119C100.907 50.2119 99.9054 48.2849 99.9054 47.3284C99.9054 46.427 100.271 45.8572 101.175 45.2252C101.812 44.7763 102.748 44.3308 103.472 44.0615C104.289 44.4172 105.532 45.1389 105.925 45.5015C107.738 46.7585 108.099 47.4803 108.099 48.1088C108.099 49.8182 105.532 50.2119 104.262 50.2119ZM110.887 32.3821C110.887 33.2558 110.552 34.4265 109.794 35.687C108.374 37.9662 107.254 38.4186 106.29 38.4186C105.472 38.4186 105.107 37.759 105.107 36.7955C105.107 35.9564 105.472 34.872 106.106 33.8878C107.073 32.358 108.437 31.0975 109.641 31.0975C110.459 31.0975 110.887 31.4877 110.887 32.3856M107.254 3.69145C106.471 3.69145 105.563 3.20798 105.563 1.95095C105.563 0.597226 106.649 0.175914 107.47 0.175914C108.618 0.175914 109.554 0.987458 109.554 2.39644C109.554 3.95736 108.374 5.81874 106.29 5.81874C106.074 5.81874 105.984 5.67024 105.984 5.54937C105.984 5.40088 106.074 5.31109 106.2 5.28001C107.619 5.01064 108.162 4.10931 108.193 3.51188C108.075 3.59821 107.651 3.69145 107.257 3.69145M123.98 4.68257C124.129 4.68257 124.307 4.59279 124.251 4.38213L123.674 0.358943C123.611 0.0895791 123.493 -0.00366211 123.339 -0.00366211C123.252 -0.00366211 123.131 0.0584987 123.04 0.234621C122.856 0.597226 122.581 0.894216 122.066 0.894216C121.165 0.894216 120.312 0.234621 118.166 0.234621C115.354 0.234621 111.635 1.4364 111.635 5.48721C111.635 9.53802 114.902 10.8607 117.717 11.8794C120.678 12.9638 123.04 13.7719 123.04 16.8316C123.04 20.2539 120.619 21.3624 118.322 21.3624C115.782 21.3624 112.783 20.1606 111.729 16.172C111.638 15.8404 111.52 15.7541 111.273 15.7541C111.064 15.7541 110.883 15.9026 110.883 16.2618V21.3935C110.883 21.6939 111.064 21.8459 111.241 21.8459C111.363 21.8459 111.516 21.7561 111.603 21.6076C111.819 21.3071 112.059 21.0343 112.633 21.0343C113.781 21.0343 115.142 22.4157 118.437 22.4157C121.342 22.4157 126.241 21.5143 126.241 15.8404C126.241 13.5923 125.305 10.7087 119.801 9.17887C115.897 8.10142 114.662 6.47833 114.662 4.49609C114.662 2.78667 115.688 1.13595 118.5 1.13595C119.888 1.13595 122.156 1.52619 123.67 4.46501C123.76 4.64804 123.854 4.67912 123.976 4.67912M122.404 41.5405C121.134 43.1878 119.14 44.7176 116.628 44.7176C114.721 44.7176 113.604 43.3708 113.604 41.6303C113.604 36.2568 119.589 30.5829 123.583 30.5829C124.94 30.5829 125.939 31.0975 125.939 32.5341C125.939 34.6337 124.063 35.7768 120.768 36.7645C119.801 37.0373 117.772 37.4862 116.777 37.6934C116.321 38.4152 115.716 39.8552 115.716 40.9949C115.716 42.5282 116.499 43.4295 117.894 43.4295C119.529 43.4295 121.071 42.1656 121.948 41.1779C122.219 40.9085 122.612 41.2677 122.4 41.5405M120.591 35.9564C122.435 35.3555 124.161 34.3644 124.161 32.7171C124.161 31.8434 123.767 31.4877 122.891 31.4877C121.861 31.4877 120.806 32.2647 120.17 32.8967C119.14 33.9154 118.079 35.1483 117.233 36.7092C117.898 36.6781 119.317 36.3466 120.587 35.9564" fill="#0F0C0C"/>
<path d="M1.99373 52.0044H9.79814C10.1913 52.0044 10.3166 52.6295 9.82945 52.6295C9.07441 52.6295 7.53301 52.9921 7.53301 54.6117V68.0557C7.53301 69.589 8.28805 70.1312 11.6422 70.1312C14.9964 70.1312 17.9331 69.741 19.4467 65.4726C19.5684 65.1169 20.1425 65.148 20.0521 65.6867L19.0535 70.9945H2.2686C1.69101 70.9945 1.81279 70.3073 2.17814 70.3073C3.26373 70.3073 4.59636 69.7928 4.59636 67.8451V54.9709C4.59636 53.3201 3.62907 52.626 1.99373 52.626C1.57271 52.626 1.5414 52.001 1.99373 52.001M124.098 77.7252H2.2686V78.8648H124.098V77.7252ZM124.098 81.3858H2.2686V84H124.098V81.3858ZM30.1181 71.1534C35.7096 71.1534 39.7353 67.2787 39.7353 61.3354C39.7353 56.1139 35.8314 51.8835 30.1181 51.8835C24.4049 51.8835 20.5636 56.2072 20.5636 61.3354C20.5636 66.9196 24.3388 71.1534 30.1181 71.1534ZM23.6742 61.3354C23.6742 56.4731 25.9428 52.7227 30.1181 52.7227C33.8377 52.7227 36.6456 56.2935 36.6456 61.3354C36.6456 67.5481 34.1091 70.2797 30.1181 70.2797C26.1272 70.2797 23.6742 66.557 23.6742 61.3354ZM41.0958 51.9733C40.7305 51.9733 40.6435 52.6053 41.1271 52.6053C41.6699 52.6053 42.8216 52.7538 42.8216 54.4045L42.7311 67.7276C42.7311 69.1712 42.2127 70.3729 40.8557 70.3729C40.4034 70.3729 40.4034 70.9738 40.7653 70.9738H46.3602C46.7256 70.9738 46.7256 70.3729 46.2976 70.3729C45.4834 70.3729 44.0638 70.0103 44.0325 67.7276L43.9107 54.1628C43.9107 54.1628 58.246 70.8806 58.333 70.9738H59.3003L59.3908 54.9467C59.3908 53.3547 60.0867 52.5155 61.809 52.5155C62.1743 52.5155 62.1743 51.9768 61.809 51.9768H55.5494C55.1911 51.9768 55.1911 52.5155 55.5494 52.5155C56.1862 52.5155 58.1208 52.6329 58.1521 54.7084L58.3052 66.3843L45.9949 51.9768H41.0958V51.9733ZM63.6218 51.8835C62.985 51.8835 63.1103 52.6053 63.4722 52.6053C64.1994 52.6053 65.4102 52.961 65.4102 54.4045V67.9418C65.4102 69.3818 65.0762 70.2797 63.3504 70.2797C62.9294 70.2797 62.9294 70.9704 63.3191 70.9704H72.4178C76.4088 70.9704 83.0302 69.0779 83.0302 61.2491C83.0302 53.4203 77.5883 51.8835 72.3274 51.8835H63.6218ZM68.3399 54.5288C68.3399 52.816 69.335 52.7227 71.6906 52.7227C75.7755 52.7227 79.8882 54.736 79.8882 61.1593C79.8882 67.5826 76.4401 70.0725 71.875 70.0725H70.9077C69.7039 70.0725 68.3399 69.8342 68.3399 67.4583V54.5254V54.5288ZM95.1561 71.1534C100.751 71.1534 104.773 67.2787 104.773 61.3354C104.773 56.1139 100.873 51.8835 95.1561 51.8835C89.4393 51.8835 85.6015 56.2072 85.6015 61.3354C85.6015 66.9196 89.3836 71.1534 95.1561 71.1534ZM88.7225 61.3354C88.7225 56.4731 90.9877 52.7227 95.1595 52.7227C98.8791 52.7227 101.69 56.2935 101.69 61.3354C101.69 67.5481 99.1505 70.2797 95.1595 70.2797C91.1686 70.2797 88.7225 66.557 88.7225 61.3354ZM106.012 51.9733C105.647 51.9733 105.56 52.6053 106.043 52.6053C106.586 52.6053 107.738 52.7538 107.738 54.4045L107.647 67.7276C107.647 69.1712 107.136 70.3729 105.772 70.3729C105.316 70.3729 105.316 70.9738 105.685 70.9738H111.276C111.642 70.9738 111.642 70.3729 111.214 70.3729C110.4 70.3729 108.98 70.0103 108.949 67.7276L108.827 54.1628C108.827 54.1628 123.162 70.8806 123.253 70.9738H124.216L124.307 54.9467C124.307 53.3547 125.003 52.5155 126.725 52.5155C127.09 52.5155 127.09 51.9768 126.725 51.9768H120.466C120.104 51.9768 120.104 52.5155 120.466 52.5155C121.106 52.5155 123.037 52.6329 123.068 54.7084L123.221 66.3843L110.914 51.9768H106.012V51.9733Z" fill="#0F0C0C"/>
</g>
<defs>
<clipPath id="clip0_18_225">
<rect width="127" height="84" fill="white"/>
</clipPath>
</defs>
</svg>
